<svg width="657" height="126" viewBox="0 0 657 126" fill="none" xmlns="http://www.w3.org/2000/svg">
<path fill-rule="evenodd" clip-rule="evenodd" d="M518 106.245V107H491V106.245H496.83V41.7351H491V40.9806C492.432 40.9806 494.158 40.9491 496.178 40.8863C498.197 40.8234 500.217 40.7134 502.237 40.5562C504.257 40.399 506.162 40.1946 507.952 39.9431C509.741 39.6916 511.173 39.3773 512.247 39V106.245H518ZM596.076 107C597.77 107 599.519 106.751 601.323 106.254C603.127 105.756 604.876 104.948 606.571 103.829C608.484 102.523 610.055 101.03 611.285 99.3512C612.515 97.6722 613.472 95.8532 614.155 93.8944C614.838 91.9355 615.317 89.9145 615.59 87.8313C615.863 85.7481 616 83.6804 616 81.6283C616 79.6383 615.863 77.6017 615.59 75.5185C615.317 73.4353 614.838 71.4298 614.155 69.5021C613.472 67.5743 612.515 65.7709 611.285 64.0919C610.055 62.4129 608.484 60.9204 606.571 59.6145C604.986 58.5574 603.4 57.7956 601.815 57.3292C600.23 56.8628 598.672 56.6296 597.141 56.6296C595.228 56.6296 593.588 56.925 592.222 57.5158C590.855 58.1065 589.707 58.9305 588.778 59.9877C588.177 60.6717 587.671 61.3091 587.261 61.8999C586.851 62.4906 586.51 63.0348 586.236 63.5322V39C585.088 39.3731 583.654 39.684 581.932 39.9328C580.21 40.1815 578.556 40.3681 576.971 40.4925C575.113 40.679 573.172 40.8345 571.15 40.9588H565V41.7051H571.15V105.508H565V105.905H558.978V72.1434C558.978 69.3451 558.436 67.0183 557.351 65.1629C556.266 63.3076 554.882 61.8628 553.201 60.8287C551.519 59.7945 549.647 59.0646 547.586 58.6387C545.524 58.2129 543.49 58 541.483 58C539.747 58 537.78 58.1369 535.583 58.4106C533.386 58.6844 531.311 59.2471 529.358 60.0987C527.405 60.9503 525.764 62.1366 524.435 63.6574C523.106 65.1782 522.441 67.1856 522.441 69.6797C522.441 70.8355 522.672 71.9001 523.133 72.8734C523.594 73.8467 524.191 74.6983 524.923 75.4283C525.656 76.1583 526.469 76.721 527.364 77.1164C528.259 77.5118 529.168 77.7095 530.09 77.7095C531.609 77.7095 532.952 77.162 534.118 76.067C535.285 74.9721 535.868 73.4513 535.868 71.5047C535.868 70.3489 535.556 69.406 534.932 68.676C534.308 67.946 533.603 67.3073 532.816 66.7598C532.03 66.2123 531.325 65.6648 530.701 65.1173C530.077 64.5698 529.765 63.8399 529.765 62.9274C529.765 62.2582 529.968 61.6651 530.375 61.148C530.782 60.631 531.23 60.2508 531.718 60.0074C532.315 59.7033 532.952 59.5056 533.63 59.4143C534.308 59.3231 534.973 59.2775 535.624 59.2775C537.468 59.2775 538.947 59.6729 540.059 60.4637C541.171 61.2545 542.025 62.2886 542.622 63.5661C543.219 64.8436 543.599 66.2731 543.761 67.8547C543.924 69.4364 544.005 71.018 544.005 72.5996V74.8808C541.944 76.0975 539.76 77.3445 537.455 78.622C535.149 79.8994 532.966 81.2073 530.904 82.5456C529.982 83.0931 529.046 83.7166 528.097 84.4162C527.147 85.1158 526.239 85.8305 525.371 86.5605C524.503 87.2905 523.716 88.0357 523.011 88.7961C522.306 89.5565 521.79 90.2408 521.465 90.8492C521.031 91.64 520.678 92.4916 520.407 93.4041C520.136 94.3166 520 95.2595 520 96.2328C520 97.9361 520.258 99.4569 520.773 100.795C521.288 102.133 521.98 103.259 522.848 104.171C523.716 105.084 524.693 105.783 525.778 106.27C526.863 106.757 527.975 107 529.114 107H529.521C531.908 107 534.322 106.376 536.763 105.129C539.204 103.882 541.429 102.62 543.436 101.343L544.005 100.978V106.635H565V106.254H586.236V100.844C586.51 101.403 586.824 101.947 587.179 102.476C587.535 103.005 588.068 103.673 588.778 104.481C589.051 104.855 589.379 105.166 589.762 105.414C590.145 105.663 590.5 105.881 590.828 106.067C591.211 106.316 591.593 106.471 591.976 106.534C593.342 106.845 594.709 107 596.076 107ZM591.005 105.128C590.508 105.128 590.136 105.003 589.887 104.753C589.639 104.503 589.211 104.065 588.604 103.439C588.162 102.939 587.79 102.313 587.486 101.563C587.183 100.812 586.948 100.062 586.783 99.3109C586.286 97.3717 586.037 95.3074 586.037 93.118V72.1936C586.037 70.9425 586.079 69.7227 586.162 68.5341C586.244 67.3456 586.451 66.2196 586.783 65.1562C587.059 64.2804 587.362 63.4516 587.693 62.6697C588.025 61.8877 588.494 61.2153 589.101 60.6523C589.763 60.0267 590.287 59.5888 590.674 59.3386C591.06 59.0884 591.502 58.9633 591.999 58.9633C592.937 58.9633 593.834 59.3543 594.689 60.1362C595.545 60.9181 596.249 61.7782 596.8 62.7166C597.794 64.4681 598.374 67.0641 598.539 70.5046C598.705 73.9451 598.787 77.6983 598.787 81.7644C598.787 85.8304 598.691 89.5055 598.498 92.7896C598.305 96.0737 597.711 98.5915 596.718 100.343C596.497 100.718 596.207 101.172 595.848 101.704C595.49 102.235 595.062 102.767 594.565 103.299C594.068 103.83 593.516 104.268 592.909 104.612C592.302 104.956 591.667 105.128 591.005 105.128ZM539.646 102.658C538.64 102.658 537.719 102.118 536.881 101.038C536.044 99.9572 535.625 98.8305 535.625 97.6574V91.9158C535.625 90.3106 535.82 88.69 536.211 87.0539C536.602 85.4178 537.147 83.8898 537.845 82.4698C538.543 81.0499 539.394 79.7688 540.399 78.6266C541.405 77.4845 542.521 76.6047 543.75 75.9873V100.621C543.303 100.93 542.801 101.238 542.242 101.547L541.702 101.845L541.2 102.123L540.735 102.38C540.399 102.566 540.037 102.658 539.646 102.658ZM638.123 107C640.901 107 643.434 106.605 645.723 105.815C648.011 105.025 649.999 103.919 651.688 102.497C653.377 101.075 654.685 99.3532 655.611 97.3309C656.537 95.3086 657 93.0651 657 90.6004C657 89.0204 656.755 87.5511 656.265 86.1924C655.774 84.8336 655.148 83.5855 654.385 82.448C653.622 81.3104 652.805 80.2993 651.933 79.4145C651.062 78.5297 650.272 77.803 649.563 77.2342C647.82 75.8439 645.791 74.4377 643.475 73.0158C641.16 71.5939 638.94 70.2509 636.815 68.987C634.908 67.8494 633.356 66.6803 632.157 65.4796C630.958 64.2788 630.359 62.5725 630.359 60.3606C630.359 59.6654 630.55 59.1125 630.931 58.7017C631.313 58.2909 631.789 57.9749 632.361 57.7537C632.933 57.5325 633.56 57.3903 634.241 57.3271C634.922 57.2639 635.535 57.2323 636.08 57.2323C637.115 57.2323 638.109 57.3745 639.062 57.6589C640.016 57.9433 640.901 58.2909 641.718 58.7017C642.535 59.1125 643.257 59.539 643.884 59.9814C644.51 60.4238 645.014 60.7714 645.396 61.0242C646.431 61.7825 647.371 62.6673 648.215 63.6784C649.059 64.6896 649.672 65.4796 650.054 66.0483C650.816 67.2491 651.443 68.3708 651.933 69.4136C652.424 70.4563 652.805 71.3885 653.077 72.21C653.404 73.158 653.649 74.0112 653.813 74.7695H654.712L652.914 56.8532H652.097C651.824 57.5483 651.497 58.1803 651.116 58.7491C650.789 59.2546 650.34 59.697 649.768 60.0762C649.196 60.4554 648.528 60.645 647.766 60.645C647.493 60.645 647.303 60.6134 647.194 60.5502C645.614 59.7286 644.306 59.0335 643.271 58.4647C642.236 57.8959 641.269 57.4219 640.37 57.0428C639.471 56.6636 638.558 56.395 637.632 56.237C636.706 56.079 635.589 56 634.282 56C632.756 56 631.149 56.2844 629.46 56.8532C627.771 57.4219 626.205 58.3067 624.761 59.5074C623.318 60.7082 622.133 62.2407 621.206 64.105C620.28 65.9693 619.817 68.197 619.817 70.7881C619.817 72.4312 619.994 73.8848 620.348 75.1487C620.703 76.4126 621.22 77.5976 621.901 78.7035C622.582 79.8095 623.399 80.8838 624.353 81.9266C625.306 82.9693 626.409 84.0595 627.662 85.197C629.515 86.9033 631.53 88.4359 633.71 89.7946C635.889 91.1533 637.918 92.4489 639.798 93.6812C641.677 94.9136 643.257 96.1775 644.538 97.473C645.818 98.7686 646.458 100.175 646.458 101.691C646.458 102.639 646.172 103.366 645.6 103.872C645.028 104.377 644.306 104.772 643.434 105.057C642.563 105.341 641.596 105.515 640.533 105.578C639.471 105.641 638.422 105.673 637.387 105.673C635.916 105.673 634.418 105.467 632.892 105.057C631.367 104.646 629.978 104.03 628.725 103.208C627.69 102.576 626.75 101.66 625.905 100.459C625.061 99.2584 624.23 97.868 623.413 96.2881C622.759 95.0242 622.214 93.6812 621.778 92.2593C621.343 90.8374 620.989 89.4944 620.716 88.2305C620.389 86.777 620.144 85.3234 619.981 83.8699H619V106.052H619.899C620.226 105.42 620.634 104.82 621.125 104.251C621.561 103.809 622.078 103.398 622.677 103.019C623.277 102.639 623.985 102.45 624.802 102.45C624.911 102.45 625.129 102.513 625.456 102.639C627.526 103.903 629.624 104.946 631.748 105.768C633.873 106.589 635.998 107 638.123 107Z" fill="black"/>
<path fill-rule="evenodd" clip-rule="evenodd" d="M476.077 36H481L457.923 110H453L476.077 36Z" fill="black"/>
<path fill-rule="evenodd" clip-rule="evenodd" d="M397.896 0V38.963C398.319 38.1728 398.848 37.3086 399.483 36.3704C400.118 35.4321 400.901 34.4198 401.833 33.3333C403.272 31.6543 405.05 30.3457 407.167 29.4074C409.284 28.4691 411.824 28 414.788 28C417.159 28 419.572 28.3704 422.027 29.1111C424.483 29.8519 426.938 31.0617 429.394 32.7407C432.357 34.8148 434.792 37.1852 436.697 39.8519C438.602 42.5185 440.084 45.3827 441.142 48.4444C442.201 51.5062 442.942 54.6914 443.365 58C443.788 61.3086 444 64.5432 444 67.7037C444 70.963 443.788 74.2469 443.365 77.5556C442.942 80.8642 442.201 84.0741 441.142 87.1852C440.084 90.2963 438.602 93.1852 436.697 95.8519C434.792 98.5185 432.357 100.889 429.394 102.963C426.769 104.741 424.059 106.025 421.265 106.815C418.471 107.605 415.762 108 413.137 108C411.02 108 408.903 107.753 406.786 107.259C406.193 107.16 405.601 106.914 405.008 106.519C404.5 106.222 403.95 105.877 403.357 105.481C402.764 105.086 402.256 104.593 401.833 104L401.305 103.377C401.137 103.175 400.977 102.979 400.824 102.79L400.388 102.241C399.975 101.71 399.631 101.235 399.356 100.815C398.916 100.143 398.516 99.4558 398.157 98.7526L397.896 98.2222V106.815H365V105.63H374.526V4.2963H365V3.11111H374.526C377.659 2.91358 380.665 2.66667 383.543 2.37037C385.999 2.17284 388.56 1.87654 391.227 1.48148C393.704 1.11464 395.798 0.662635 397.508 0.125472L397.896 0ZM361 3V41.7771H359.862C359.862 37.32 359.188 33.1105 357.84 29.1486C356.492 25.1867 354.469 20.8286 351.773 16.0743C350.256 13.499 348.781 11.4438 347.349 9.90857C345.916 8.37333 344.526 7.18476 343.178 6.34286C341.829 5.50095 340.523 4.95619 339.259 4.70857C338.176 4.49633 337.123 4.37504 336.102 4.34472L335.594 4.33714V105.811H348.234V107H295.146V105.811H307.786V4.33714C306.606 4.33714 305.3 4.46095 303.867 4.70857C302.435 4.95619 300.96 5.47619 299.443 6.26857C297.926 7.06095 296.367 8.2 294.766 9.68571C293.272 11.0724 291.851 12.9336 290.504 15.2694L290.216 15.7771C287.519 20.5314 285.687 24.8895 284.718 28.8514C283.813 32.5492 283.331 36.4627 283.27 40.5919L283.264 41.48H282V3H361ZM278 37.6171V3H198V4.18857H209.338V105.811H198V107H252.14V105.811L238.637 105.663V54.1086H244.115L244.722 54.1139C247.536 54.1632 250.072 54.5576 252.331 55.2971C254.752 56.0895 256.811 57.9219 258.51 60.7943C260.038 63.3695 261.206 65.8952 262.013 68.3714C262.82 70.8476 263.223 73.5219 263.223 76.3943H264.242V30.6343H263.223L263.217 31.2253C263.164 33.9678 262.742 36.4946 261.949 38.8057C261.1 41.2819 259.953 43.7581 258.51 46.2343C257.575 47.819 256.599 49.0571 255.58 49.9486C254.561 50.84 253.456 51.5086 252.268 51.9543C251.079 52.4 249.805 52.6724 248.446 52.7714C247.087 52.8705 245.643 52.92 244.115 52.92H238.637V4.18857H248.828L249.804 4.19312C251.744 4.21131 253.605 4.28408 255.389 4.41143C257.469 4.56 259.423 4.98095 261.248 5.67429C263.074 6.36762 264.794 7.45714 266.408 8.94286C268.021 10.4286 269.592 12.459 271.121 15.0343C272.48 17.3124 273.541 19.3676 274.306 21.2C275.07 23.0324 275.643 24.7905 276.025 26.4743C276.408 28.1581 276.641 29.8914 276.726 31.6743L276.776 32.8922L276.814 34.1688C276.83 34.8218 276.841 35.4968 276.847 36.1938L276.854 37.6171H278ZM116.391 3C118.251 3.09905 120.28 3.54476 122.478 4.33714C124.338 5.03048 126.452 6.04571 128.819 7.38286C131.186 8.72 133.638 10.6762 136.174 13.2514C136.512 13.5948 136.854 13.9456 137.201 14.304L138.252 15.4014C138.43 15.5881 138.608 15.7766 138.788 15.967L139.877 17.1318L140.99 18.3415C141.178 18.5468 141.367 18.7541 141.556 18.9632L142.707 20.2402L143.883 21.5622C144.081 21.7863 144.28 22.0122 144.48 22.24C147.481 25.6571 150.504 29.2724 153.547 33.0857C156.591 36.899 159.571 40.7619 162.487 44.6743C163.737 46.351 164.882 47.9823 165.972 49.568L168.612 53.4377C168.956 53.941 169.299 54.4393 169.643 54.9325L171.103 57.0169L172.009 58.3283L172.877 59.6027L173.707 60.8402C173.842 61.0433 173.975 61.245 174.107 61.445L174.879 62.627L175.613 63.772L175.734 63.963C175.773 64.0255 175.813 64.0878 175.852 64.15C175.89 64.2104 175.928 64.2706 175.966 64.3306L176.571 65.3049L177.071 66.1239L177.538 66.9018L177.971 67.6385L178.37 68.334L178.735 68.9883L179.067 69.6016L179.365 70.1736L179.629 70.7045L179.668 70.7851C179.695 70.8424 179.722 70.8989 179.748 70.9546L179.859 71.1943V11.32C179.859 9.33905 179.289 7.65524 178.147 6.26857C177.069 4.95894 175.746 4.26775 174.178 4.19499L173.899 4.18857H167.178V3H194.603V4.18857H186.961C185.27 4.18857 183.854 4.8819 182.712 6.26857C181.638 7.57367 181.07 9.14198 181.006 10.9735L181.001 11.32V107H179.859C177.915 107 175.421 105.762 172.377 103.286C170.551 101.8 168.726 100.056 166.763 98.053L165.77 97.0301L164.75 95.9641L163.699 94.855L162.614 93.7029C158.937 89.7905 155.069 85.3086 151.011 80.2571C146.953 75.2057 142.979 70.0552 139.091 64.8057C138.515 64.0381 137.936 63.2639 137.356 62.4831L135.607 60.1211C135.022 59.3271 134.435 58.5266 133.845 57.7196L132.068 55.2786L130.278 52.7981C129.979 52.3814 129.679 51.9631 129.378 51.5431L127.567 49.0035L125.742 46.4244C125.437 45.9912 125.131 45.5564 124.824 45.12L122.979 42.4817L121.119 39.8039L119.246 37.0867C118.619 36.1744 117.99 35.2555 117.358 34.33L115.457 31.5338L113.542 28.6982L111.613 25.8231L109.67 22.9086V98.68C109.67 100.661 110.241 102.345 111.382 103.731C112.46 105.041 113.783 105.732 115.351 105.805L115.63 105.811H122.351V107H95.9746V105.811H102.569C104.26 105.811 105.697 105.118 106.88 103.731C107.994 102.426 108.584 100.858 108.65 99.0265L108.656 98.68V21.8686L103.457 15.6286C101.512 13.4495 99.6733 11.6171 97.9402 10.1314C96.2071 8.64571 94.6643 7.45714 93.3116 6.56571C91.9282 5.57524 90.6147 4.83033 89.371 4.331L89 4.18857V3H116.391ZM404.273 32.5935C404.879 32.1978 405.571 32 406.351 32C407.823 32 409.229 32.6182 410.571 33.8547C411.913 35.0911 413.017 36.4512 413.883 37.935C415.442 40.7046 416.351 44.8096 416.61 50.25C416.87 55.6904 417 61.6253 417 68.0549C417 70.3241 416.981 72.5164 416.943 74.6316L416.899 76.7211C416.857 78.4411 416.802 80.1075 416.734 81.7204L416.646 83.6303C416.615 84.2584 416.581 84.8779 416.545 85.4888C416.242 90.6819 415.312 94.6633 413.753 97.4329C413.623 97.6555 413.478 97.8954 413.318 98.1528L412.977 98.6906C412.945 98.7407 412.912 98.7914 412.879 98.8426C412.85 98.887 412.821 98.9317 412.791 98.9769L412.39 99.5844C411.827 100.425 411.156 101.266 410.377 102.107C409.597 102.947 408.732 103.64 407.779 104.184C406.827 104.728 405.831 105 404.792 105C404.013 105 403.429 104.802 403.039 104.407L401.026 102.329C400.333 101.538 399.749 100.549 399.273 99.3618C398.797 98.1748 398.429 96.9878 398.169 95.8008C397.39 92.7344 397 89.4702 397 86.0081V52.9207L397.008 51.7397C397.029 50.1728 397.091 48.6377 397.195 47.1341C397.325 45.2547 397.649 43.4743 398.169 41.7927C398.602 40.4079 399.078 39.0972 399.597 37.8608C400.117 36.6243 400.853 35.561 401.805 34.6707L402.307 34.2009C402.387 34.1267 402.466 34.0546 402.544 33.9845L402.991 33.5888C403.492 33.1561 403.919 32.8243 404.273 32.5935Z" fill="black"/>
<path fill-rule="evenodd" clip-rule="evenodd" d="M74 117V126H0V117H74ZM74 3V107H0V3H74ZM65 12H9V98H65V12Z" fill="url(#paint0_linear)"/>
<defs>
<linearGradient id="paint0_linear" x1="-19.1352" y1="64.9207" x2="68.6688" y2="104.006" gradientUnits="userSpaceOnUse">
<stop stop-color="#18D3FD"/>
<stop offset="1" stop-color="#DE04FF"/>
</linearGradient>
</defs>
</svg>
